<?xml version="1.0" encoding="UTF-8" standalone="no"?>
<!DOCTYPE svg PUBLIC "-//W3C//DTD SVG 1.1//EN"
 "http://www.w3.org/Graphics/SVG/1.1/DTD/svg11.dtd">
<!-- Generated by graphviz version 13.0.0 (20250608.1624)
 -->
<!-- Title: CLOD_DAG Pages: 1 -->
<svg width="677pt" height="492pt"
 viewBox="0.00 0.00 677.00 492.00" xmlns="http://www.w3.org/2000/svg" xmlns:xlink="http://www.w3.org/1999/xlink">
<g id="graph0" class="graph" transform="scale(1 1) rotate(0) translate(4 488)">
<title>CLOD_DAG</title>
<polygon fill="white" stroke="none" points="-4,4 -4,-488 673,-488 673,4 -4,4"/>
<g id="clust1" class="cluster">
<title>cluster_0</title>
<polygon fill="none" stroke="black" points="8,-44 8,-146 661,-146 661,-44 8,-44"/>
</g>
<g id="clust2" class="cluster">
<title>cluster_1</title>
<polygon fill="none" stroke="black" points="145,-154 145,-256 580,-256 580,-154 145,-154"/>
</g>
<g id="clust3" class="cluster">
<title>cluster_2</title>
<polygon fill="none" stroke="black" points="244,-264 244,-366 479,-366 479,-264 244,-264"/>
</g>
<g id="clust4" class="cluster">
<title>cluster_3</title>
<polygon fill="none" stroke="black" points="280,-374 280,-476 466,-476 466,-374 280,-374"/>
</g>
<!-- LOD0 -->
<g id="node1" class="node">
<title>LOD0</title>
<text xml:space="preserve" text-anchor="middle" x="59" y="-114.95" font-family="Times New Roman,serif" font-size="14.00">LOD0</text>
</g>
<!-- LOD1 -->
<g id="node2" class="node">
<title>LOD1</title>
<text xml:space="preserve" text-anchor="middle" x="196" y="-224.95" font-family="Times New Roman,serif" font-size="14.00">LOD1</text>
</g>
<!-- LOD2 -->
<g id="node3" class="node">
<title>LOD2</title>
<text xml:space="preserve" text-anchor="middle" x="301" y="-334.95" font-family="Times New Roman,serif" font-size="14.00">LOD2</text>
</g>
<!-- LOD3 -->
<g id="node4" class="node">
<title>LOD3</title>
<text xml:space="preserve" text-anchor="middle" x="313" y="-444.95" font-family="Times New Roman,serif" font-size="14.00">LOD3</text>
</g>
<!-- MeshletGroup0 -->
<g id="node5" class="node">
<title>MeshletGroup0</title>
<polygon fill="none" stroke="blue" points="221.75,-138 120.25,-138 120.25,-102 221.75,-102 221.75,-138"/>
<text xml:space="preserve" text-anchor="middle" x="171" y="-114.95" font-family="Times New Roman,serif" font-size="14.00">MeshletGroup0</text>
</g>
<!-- Meshlet0 -->
<g id="node6" class="node">
<title>Meshlet0</title>
<ellipse fill="none" stroke="black" cx="62" cy="-70" rx="45.72" ry="18"/>
<text xml:space="preserve" text-anchor="middle" x="62" y="-64.95" font-family="Times New Roman,serif" font-size="14.00">Meshlet0</text>
</g>
<!-- MeshletGroup0&#45;&gt;Meshlet0 -->
<g id="edge1" class="edge">
<title>MeshletGroup0&#45;&gt;Meshlet0</title>
<path fill="none" stroke="black" d="M120.98,-96.97C110.91,-92.54 100.64,-88.02 91.55,-84.01"/>
<polygon fill="black" stroke="black" points="119.39,-100.1 129.95,-100.93 122.21,-93.69 119.39,-100.1"/>
</g>
<!-- Meshlet1 -->
<g id="node7" class="node">
<title>Meshlet1</title>
<ellipse fill="none" stroke="black" cx="171" cy="-70" rx="45.72" ry="18"/>
<text xml:space="preserve" text-anchor="middle" x="171" y="-64.95" font-family="Times New Roman,serif" font-size="14.00">Meshlet1</text>
</g>
<!-- MeshletGroup0&#45;&gt;Meshlet1 -->
<g id="edge2" class="edge">
<title>MeshletGroup0&#45;&gt;Meshlet1</title>
<path fill="none" stroke="black" d="M171,-90.5C171,-89.82 171,-89.14 171,-88.46"/>
<polygon fill="black" stroke="black" points="167.5,-90.16 171,-100.16 174.5,-90.16 167.5,-90.16"/>
</g>
<!-- SourceMesh -->
<g id="node25" class="node">
<title>SourceMesh</title>
<polygon fill="none" stroke="deepskyblue" points="376.12,-36 291.88,-36 291.88,0 376.12,0 376.12,-36"/>
<text xml:space="preserve" text-anchor="middle" x="334" y="-12.95" font-family="Times New Roman,serif" font-size="14.00">SourceMesh</text>
</g>
<!-- Meshlet0&#45;&gt;SourceMesh -->
<g id="edge21" class="edge">
<title>Meshlet0&#45;&gt;SourceMesh</title>
<path fill="none" stroke="black" d="M98.37,-50.27C104.15,-47.85 110.16,-45.64 116,-44 175.41,-27.31 246.93,-21.73 291.44,-19.89"/>
<polygon fill="black" stroke="black" points="97.35,-46.89 89.65,-54.17 100.21,-53.28 97.35,-46.89"/>
</g>
<!-- Meshlet1&#45;&gt;SourceMesh -->
<g id="edge22" class="edge">
<title>Meshlet1&#45;&gt;SourceMesh</title>
<path fill="none" stroke="black" d="M208.34,-50.5C213.85,-48.13 219.52,-45.87 225,-44 246.49,-36.65 271.11,-30.8 291.5,-26.61"/>
<polygon fill="black" stroke="black" points="207.08,-47.23 199.4,-54.53 209.95,-53.61 207.08,-47.23"/>
</g>
<!-- MeshletGroup1 -->
<g id="node8" class="node">
<title>MeshletGroup1</title>
<polygon fill="none" stroke="blue" points="439.75,-138 338.25,-138 338.25,-102 439.75,-102 439.75,-138"/>
<text xml:space="preserve" text-anchor="middle" x="389" y="-114.95" font-family="Times New Roman,serif" font-size="14.00">MeshletGroup1</text>
</g>
<!-- Meshlet2 -->
<g id="node9" class="node">
<title>Meshlet2</title>
<ellipse fill="none" stroke="black" cx="280" cy="-70" rx="45.72" ry="18"/>
<text xml:space="preserve" text-anchor="middle" x="280" y="-64.95" font-family="Times New Roman,serif" font-size="14.00">Meshlet2</text>
</g>
<!-- MeshletGroup1&#45;&gt;Meshlet2 -->
<g id="edge3" class="edge">
<title>MeshletGroup1&#45;&gt;Meshlet2</title>
<path fill="none" stroke="black" d="M338.98,-96.97C328.91,-92.54 318.64,-88.02 309.55,-84.01"/>
<polygon fill="black" stroke="black" points="337.39,-100.1 347.95,-100.93 340.21,-93.69 337.39,-100.1"/>
</g>
<!-- Meshlet3 -->
<g id="node10" class="node">
<title>Meshlet3</title>
<ellipse fill="none" stroke="black" cx="389" cy="-70" rx="45.72" ry="18"/>
<text xml:space="preserve" text-anchor="middle" x="389" y="-64.95" font-family="Times New Roman,serif" font-size="14.00">Meshlet3</text>
</g>
<!-- MeshletGroup1&#45;&gt;Meshlet3 -->
<g id="edge4" class="edge">
<title>MeshletGroup1&#45;&gt;Meshlet3</title>
<path fill="none" stroke="black" d="M389,-90.5C389,-89.82 389,-89.14 389,-88.46"/>
<polygon fill="black" stroke="black" points="385.5,-90.16 389,-100.16 392.5,-90.16 385.5,-90.16"/>
</g>
<!-- Meshlet4 -->
<g id="node11" class="node">
<title>Meshlet4</title>
<ellipse fill="none" stroke="black" cx="498" cy="-70" rx="45.72" ry="18"/>
<text xml:space="preserve" text-anchor="middle" x="498" y="-64.95" font-family="Times New Roman,serif" font-size="14.00">Meshlet4</text>
</g>
<!-- MeshletGroup1&#45;&gt;Meshlet4 -->
<g id="edge5" class="edge">
<title>MeshletGroup1&#45;&gt;Meshlet4</title>
<path fill="none" stroke="black" d="M439.02,-96.97C449.09,-92.54 459.36,-88.02 468.45,-84.01"/>
<polygon fill="black" stroke="black" points="437.79,-93.69 430.05,-100.93 440.61,-100.1 437.79,-93.69"/>
</g>
<!-- Meshlet2&#45;&gt;SourceMesh -->
<g id="edge23" class="edge">
<title>Meshlet2&#45;&gt;SourceMesh</title>
<path fill="none" stroke="black" d="M305.67,-45.23C308.86,-42.27 312.09,-39.29 315.16,-36.45"/>
<polygon fill="black" stroke="black" points="303.45,-42.51 298.49,-51.88 308.21,-47.65 303.45,-42.51"/>
</g>
<!-- Meshlet3&#45;&gt;SourceMesh -->
<g id="edge24" class="edge">
<title>Meshlet3&#45;&gt;SourceMesh</title>
<path fill="none" stroke="black" d="M363.23,-45.57C359.79,-42.44 356.31,-39.28 353,-36.28"/>
<polygon fill="black" stroke="black" points="360.72,-48.02 370.48,-52.16 365.43,-42.85 360.72,-48.02"/>
</g>
<!-- Meshlet4&#45;&gt;SourceMesh -->
<g id="edge25" class="edge">
<title>Meshlet4&#45;&gt;SourceMesh</title>
<path fill="none" stroke="black" d="M460.67,-50.49C455.15,-48.12 449.48,-45.87 444,-44 422.13,-36.54 397.05,-30.65 376.36,-26.46"/>
<polygon fill="black" stroke="black" points="459.05,-53.6 469.61,-54.52 461.93,-47.22 459.05,-53.6"/>
</g>
<!-- MeshletGroup2 -->
<g id="node12" class="node">
<title>MeshletGroup2</title>
<polygon fill="none" stroke="blue" points="605.75,-138 504.25,-138 504.25,-102 605.75,-102 605.75,-138"/>
<text xml:space="preserve" text-anchor="middle" x="555" y="-114.95" font-family="Times New Roman,serif" font-size="14.00">MeshletGroup2</text>
</g>
<!-- Meshlet5 -->
<g id="node13" class="node">
<title>Meshlet5</title>
<ellipse fill="none" stroke="black" cx="607" cy="-70" rx="45.72" ry="18"/>
<text xml:space="preserve" text-anchor="middle" x="607" y="-64.95" font-family="Times New Roman,serif" font-size="14.00">Meshlet5</text>
</g>
<!-- MeshletGroup2&#45;&gt;Meshlet5 -->
<g id="edge6" class="edge">
<title>MeshletGroup2&#45;&gt;Meshlet5</title>
<path fill="none" stroke="black" d="M582.08,-94C584.71,-91.58 587.32,-89.16 589.81,-86.87"/>
<polygon fill="black" stroke="black" points="579.86,-91.29 574.89,-100.64 584.61,-96.43 579.86,-91.29"/>
</g>
<!-- Meshlet5&#45;&gt;SourceMesh -->
<g id="edge26" class="edge">
<title>Meshlet5&#45;&gt;SourceMesh</title>
<path fill="none" stroke="black" d="M570.63,-50.27C564.85,-47.84 558.84,-45.64 553,-44 493.13,-27.2 421.02,-21.65 376.34,-19.84"/>
<polygon fill="black" stroke="black" points="568.79,-53.28 579.35,-54.17 571.65,-46.89 568.79,-53.28"/>
</g>
<!-- Meshlet6 -->
<g id="node14" class="node">
<title>Meshlet6</title>
<ellipse fill="none" stroke="black" cx="199" cy="-180" rx="45.72" ry="18"/>
<text xml:space="preserve" text-anchor="middle" x="199" y="-174.95" font-family="Times New Roman,serif" font-size="14.00">Meshlet6</text>
</g>
<!-- Meshlet6&#45;&gt;MeshletGroup0 -->
<g id="edge7" class="edge">
<title>Meshlet6&#45;&gt;MeshletGroup0</title>
<path fill="none" stroke="black" d="M185.76,-151.57C183.55,-147 181.32,-142.38 179.29,-138.17"/>
<polygon fill="black" stroke="black" points="182.59,-153.06 190.09,-160.55 188.9,-150.02 182.59,-153.06"/>
</g>
<!-- Meshlet7 -->
<g id="node15" class="node">
<title>Meshlet7</title>
<ellipse fill="none" stroke="black" cx="308" cy="-180" rx="45.72" ry="18"/>
<text xml:space="preserve" text-anchor="middle" x="308" y="-174.95" font-family="Times New Roman,serif" font-size="14.00">Meshlet7</text>
</g>
<!-- Meshlet7&#45;&gt;MeshletGroup1 -->
<g id="edge8" class="edge">
<title>Meshlet7&#45;&gt;MeshletGroup1</title>
<path fill="none" stroke="black" d="M338.37,-157.25C347.07,-151.02 356.43,-144.32 364.71,-138.39"/>
<polygon fill="black" stroke="black" points="336.61,-154.21 330.51,-162.88 340.68,-159.9 336.61,-154.21"/>
</g>
<!-- Meshlet8 -->
<g id="node16" class="node">
<title>Meshlet8</title>
<ellipse fill="none" stroke="black" cx="417" cy="-180" rx="45.72" ry="18"/>
<text xml:space="preserve" text-anchor="middle" x="417" y="-174.95" font-family="Times New Roman,serif" font-size="14.00">Meshlet8</text>
</g>
<!-- Meshlet8&#45;&gt;MeshletGroup1 -->
<g id="edge9" class="edge">
<title>Meshlet8&#45;&gt;MeshletGroup1</title>
<path fill="none" stroke="black" d="M403.76,-151.57C401.55,-147 399.32,-142.38 397.29,-138.17"/>
<polygon fill="black" stroke="black" points="400.59,-153.06 408.09,-160.55 406.9,-150.02 400.59,-153.06"/>
</g>
<!-- Meshlet9 -->
<g id="node17" class="node">
<title>Meshlet9</title>
<ellipse fill="none" stroke="black" cx="526" cy="-180" rx="45.72" ry="18"/>
<text xml:space="preserve" text-anchor="middle" x="526" y="-174.95" font-family="Times New Roman,serif" font-size="14.00">Meshlet9</text>
</g>
<!-- Meshlet9&#45;&gt;MeshletGroup2 -->
<g id="edge10" class="edge">
<title>Meshlet9&#45;&gt;MeshletGroup2</title>
<path fill="none" stroke="black" d="M539.53,-151.95C541.87,-147.26 544.25,-142.5 546.42,-138.17"/>
<polygon fill="black" stroke="black" points="536.56,-150.05 535.22,-160.56 542.82,-153.18 536.56,-150.05"/>
</g>
<!-- MeshletGroup3 -->
<g id="node18" class="node">
<title>MeshletGroup3</title>
<polygon fill="none" stroke="blue" points="352.75,-248 251.25,-248 251.25,-212 352.75,-212 352.75,-248"/>
<text xml:space="preserve" text-anchor="middle" x="302" y="-224.95" font-family="Times New Roman,serif" font-size="14.00">MeshletGroup3</text>
</g>
<!-- MeshletGroup3&#45;&gt;Meshlet6 -->
<g id="edge11" class="edge">
<title>MeshletGroup3&#45;&gt;Meshlet6</title>
<path fill="none" stroke="black" d="M254.33,-206.78C245.18,-202.52 235.87,-198.18 227.57,-194.31"/>
<polygon fill="black" stroke="black" points="252.61,-209.84 263.15,-210.9 255.57,-203.5 252.61,-209.84"/>
</g>
<!-- MeshletGroup3&#45;&gt;Meshlet7 -->
<g id="edge12" class="edge">
<title>MeshletGroup3&#45;&gt;Meshlet7</title>
<path fill="none" stroke="black" d="M305.56,-200.5C305.65,-199.82 305.73,-199.14 305.82,-198.46"/>
<polygon fill="black" stroke="black" points="302.12,-199.81 304.35,-210.17 309.07,-200.68 302.12,-199.81"/>
</g>
<!-- MeshletGroup4 -->
<g id="node19" class="node">
<title>MeshletGroup4</title>
<polygon fill="none" stroke="blue" points="472.75,-248 371.25,-248 371.25,-212 472.75,-212 472.75,-248"/>
<text xml:space="preserve" text-anchor="middle" x="422" y="-224.95" font-family="Times New Roman,serif" font-size="14.00">MeshletGroup4</text>
</g>
<!-- MeshletGroup4&#45;&gt;Meshlet8 -->
<g id="edge13" class="edge">
<title>MeshletGroup4&#45;&gt;Meshlet8</title>
<path fill="none" stroke="black" d="M419.03,-200.5C418.96,-199.82 418.89,-199.14 418.82,-198.46"/>
<polygon fill="black" stroke="black" points="415.52,-200.58 420.04,-210.17 422.48,-199.86 415.52,-200.58"/>
</g>
<!-- MeshletGroup4&#45;&gt;Meshlet9 -->
<g id="edge14" class="edge">
<title>MeshletGroup4&#45;&gt;Meshlet9</title>
<path fill="none" stroke="black" d="M470.14,-206.78C479.37,-202.52 488.77,-198.18 497.16,-194.31"/>
<polygon fill="black" stroke="black" points="468.83,-203.53 461.21,-210.9 471.76,-209.89 468.83,-203.53"/>
</g>
<!-- Meshlet10 -->
<g id="node20" class="node">
<title>Meshlet10</title>
<ellipse fill="none" stroke="black" cx="302" cy="-290" rx="50.33" ry="18"/>
<text xml:space="preserve" text-anchor="middle" x="302" y="-284.95" font-family="Times New Roman,serif" font-size="14.00">Meshlet10</text>
</g>
<!-- Meshlet10&#45;&gt;MeshletGroup3 -->
<g id="edge15" class="edge">
<title>Meshlet10&#45;&gt;MeshletGroup3</title>
<path fill="none" stroke="black" d="M302,-260.37C302,-256.27 302,-252.17 302,-248.39"/>
<polygon fill="black" stroke="black" points="298.5,-260.08 302,-270.08 305.5,-260.08 298.5,-260.08"/>
</g>
<!-- Meshlet11 -->
<g id="node21" class="node">
<title>Meshlet11</title>
<ellipse fill="none" stroke="black" cx="421" cy="-290" rx="50.33" ry="18"/>
<text xml:space="preserve" text-anchor="middle" x="421" y="-284.95" font-family="Times New Roman,serif" font-size="14.00">Meshlet11</text>
</g>
<!-- Meshlet11&#45;&gt;MeshletGroup4 -->
<g id="edge16" class="edge">
<title>Meshlet11&#45;&gt;MeshletGroup4</title>
<path fill="none" stroke="black" d="M421.49,-260.37C421.56,-256.27 421.63,-252.17 421.7,-248.39"/>
<polygon fill="black" stroke="black" points="418,-260.03 421.33,-270.08 425,-260.15 418,-260.03"/>
</g>
<!-- MeshletGroup5 -->
<g id="node22" class="node">
<title>MeshletGroup5</title>
<polygon fill="none" stroke="blue" points="457.75,-358 356.25,-358 356.25,-322 457.75,-322 457.75,-358"/>
<text xml:space="preserve" text-anchor="middle" x="407" y="-334.95" font-family="Times New Roman,serif" font-size="14.00">MeshletGroup5</text>
</g>
<!-- MeshletGroup5&#45;&gt;Meshlet10 -->
<g id="edge17" class="edge">
<title>MeshletGroup5&#45;&gt;Meshlet10</title>
<path fill="none" stroke="black" d="M358.41,-316.79C349.44,-312.69 340.33,-308.52 332.11,-304.77"/>
<polygon fill="black" stroke="black" points="356.87,-319.93 367.42,-320.91 359.78,-313.57 356.87,-319.93"/>
</g>
<!-- MeshletGroup5&#45;&gt;Meshlet11 -->
<g id="edge18" class="edge">
<title>MeshletGroup5&#45;&gt;Meshlet11</title>
<path fill="none" stroke="black" d="M415.27,-310.65C415.52,-309.8 415.76,-308.97 416,-308.14"/>
<polygon fill="black" stroke="black" points="411.92,-309.64 412.48,-320.22 418.64,-311.6 411.92,-309.64"/>
</g>
<!-- Meshlet12 -->
<g id="node23" class="node">
<title>Meshlet12</title>
<ellipse fill="none" stroke="black" cx="407" cy="-400" rx="50.33" ry="18"/>
<text xml:space="preserve" text-anchor="middle" x="407" y="-394.95" font-family="Times New Roman,serif" font-size="14.00">Meshlet12</text>
</g>
<!-- Meshlet12&#45;&gt;MeshletGroup5 -->
<g id="edge19" class="edge">
<title>Meshlet12&#45;&gt;MeshletGroup5</title>
<path fill="none" stroke="black" d="M407,-370.37C407,-366.27 407,-362.17 407,-358.39"/>
<polygon fill="black" stroke="black" points="403.5,-370.08 407,-380.08 410.5,-370.08 403.5,-370.08"/>
</g>
<!-- MeshletGroup6 -->
<g id="node24" class="node">
<title>MeshletGroup6</title>
<polygon fill="none" stroke="blue" points="457.75,-468 356.25,-468 356.25,-432 457.75,-432 457.75,-468"/>
<text xml:space="preserve" text-anchor="middle" x="407" y="-444.95" font-family="Times New Roman,serif" font-size="14.00">MeshletGroup6</text>
</g>
<!-- MeshletGroup6&#45;&gt;Meshlet12 -->
<g id="edge20" class="edge">
<title>MeshletGroup6&#45;&gt;Meshlet12</title>
<path fill="none" stroke="black" d="M407,-420.5C407,-419.82 407,-419.14 407,-418.46"/>
<polygon fill="black" stroke="black" points="403.5,-420.16 407,-430.16 410.5,-420.16 403.5,-420.16"/>
</g>
</g>
</svg>
