<?xml version="1.0" encoding="UTF-8" standalone="no"?>
<!DOCTYPE svg PUBLIC "-//W3C//DTD SVG 1.1//EN"
 "http://www.w3.org/Graphics/SVG/1.1/DTD/svg11.dtd">
<!-- Generated by graphviz version 13.0.0 (20250608.1624)
 -->
<!-- Title: CLOD_DAG Pages: 1 -->
<svg width="677pt" height="698pt"
 viewBox="0.00 0.00 677.00 698.00" xmlns="http://www.w3.org/2000/svg" xmlns:xlink="http://www.w3.org/1999/xlink">
<g id="graph0" class="graph" transform="scale(1 1) rotate(0) translate(4 694)">
<title>CLOD_DAG</title>
<polygon fill="white" stroke="none" points="-4,4 -4,-694 673,-694 673,4 -4,4"/>
<g id="clust1" class="cluster">
<title>cluster_0</title>
<polygon fill="none" stroke="black" points="8,-64 8,-212.5 661,-212.5 661,-64 8,-64"/>
<text xml:space="preserve" text-anchor="middle" x="334.5" y="-195.2" font-family="Times New Roman,serif" font-size="14.00">LOD0</text>
</g>
<g id="clust2" class="cluster">
<title>cluster_1</title>
<polygon fill="none" stroke="black" points="145,-220.5 145,-369 580,-369 580,-220.5 145,-220.5"/>
<text xml:space="preserve" text-anchor="middle" x="362.5" y="-351.7" font-family="Times New Roman,serif" font-size="14.00">LOD1</text>
</g>
<g id="clust3" class="cluster">
<title>cluster_2</title>
<polygon fill="none" stroke="black" points="244,-377 244,-525.5 479,-525.5 479,-377 244,-377"/>
<text xml:space="preserve" text-anchor="middle" x="361.5" y="-508.2" font-family="Times New Roman,serif" font-size="14.00">LOD2</text>
</g>
<g id="clust4" class="cluster">
<title>cluster_3</title>
<polygon fill="none" stroke="black" points="302,-533.5 302,-682 420,-682 420,-533.5 302,-533.5"/>
<text xml:space="preserve" text-anchor="middle" x="361" y="-664.7" font-family="Times New Roman,serif" font-size="14.00">LOD3</text>
</g>
<!-- MeshletGroup0 -->
<g id="node1" class="node">
<title>MeshletGroup0</title>
<polygon fill="none" stroke="blue" points="221.75,-180 120.25,-180 120.25,-144 221.75,-144 221.75,-180"/>
<text xml:space="preserve" text-anchor="middle" x="171" y="-156.95" font-family="Times New Roman,serif" font-size="14.00">MeshletGroup0</text>
</g>
<!-- Meshlet0 -->
<g id="node2" class="node">
<title>Meshlet0</title>
<ellipse fill="none" stroke="black" cx="62" cy="-90" rx="45.72" ry="18"/>
<text xml:space="preserve" text-anchor="middle" x="62" y="-84.95" font-family="Times New Roman,serif" font-size="14.00">Meshlet0</text>
</g>
<!-- MeshletGroup0&#45;&gt;Meshlet0 -->
<g id="edge1" class="edge">
<title>MeshletGroup0&#45;&gt;Meshlet0</title>
<path fill="none" stroke="black" d="M134.52,-137.57C118.23,-127.11 99.53,-115.1 85.19,-105.89"/>
<polygon fill="black" stroke="black" points="132.2,-140.24 142.5,-142.7 135.98,-134.35 132.2,-140.24"/>
</g>
<!-- Meshlet1 -->
<g id="node3" class="node">
<title>Meshlet1</title>
<ellipse fill="none" stroke="black" cx="171" cy="-90" rx="45.72" ry="18"/>
<text xml:space="preserve" text-anchor="middle" x="171" y="-84.95" font-family="Times New Roman,serif" font-size="14.00">Meshlet1</text>
</g>
<!-- MeshletGroup0&#45;&gt;Meshlet1 -->
<g id="edge2" class="edge">
<title>MeshletGroup0&#45;&gt;Meshlet1</title>
<path fill="none" stroke="black" d="M171,-132.24C171,-124.04 171,-115.37 171,-108.1"/>
<polygon fill="black" stroke="black" points="167.5,-132.18 171,-142.18 174.5,-132.18 167.5,-132.18"/>
</g>
<!-- SourceMesh -->
<g id="node21" class="node">
<title>SourceMesh</title>
<polygon fill="none" stroke="deepskyblue" points="376.12,-36 291.88,-36 291.88,0 376.12,0 376.12,-36"/>
<text xml:space="preserve" text-anchor="middle" x="334" y="-12.95" font-family="Times New Roman,serif" font-size="14.00">SourceMesh</text>
</g>
<!-- Meshlet0&#45;&gt;SourceMesh -->
<g id="edge21" class="edge">
<title>Meshlet0&#45;&gt;SourceMesh</title>
<path fill="none" stroke="black" d="M99.3,-70.39C104.82,-68.03 110.5,-65.81 116,-64 175.46,-44.39 246.96,-31.58 291.46,-24.81"/>
<polygon fill="black" stroke="black" points="98.04,-67.12 90.36,-74.41 100.91,-73.5 98.04,-67.12"/>
</g>
<!-- Meshlet1&#45;&gt;SourceMesh -->
<g id="edge22" class="edge">
<title>Meshlet1&#45;&gt;SourceMesh</title>
<path fill="none" stroke="black" d="M209.77,-70.81C214.88,-68.49 220.05,-66.16 225,-64 246.76,-54.48 271.18,-44.35 291.38,-36.11"/>
<polygon fill="black" stroke="black" points="208.48,-67.55 200.86,-74.91 211.41,-73.91 208.48,-67.55"/>
</g>
<!-- MeshletGroup1 -->
<g id="node4" class="node">
<title>MeshletGroup1</title>
<polygon fill="none" stroke="blue" points="439.75,-180 338.25,-180 338.25,-144 439.75,-144 439.75,-180"/>
<text xml:space="preserve" text-anchor="middle" x="389" y="-156.95" font-family="Times New Roman,serif" font-size="14.00">MeshletGroup1</text>
</g>
<!-- Meshlet2 -->
<g id="node5" class="node">
<title>Meshlet2</title>
<ellipse fill="none" stroke="black" cx="280" cy="-90" rx="45.72" ry="18"/>
<text xml:space="preserve" text-anchor="middle" x="280" y="-84.95" font-family="Times New Roman,serif" font-size="14.00">Meshlet2</text>
</g>
<!-- MeshletGroup1&#45;&gt;Meshlet2 -->
<g id="edge3" class="edge">
<title>MeshletGroup1&#45;&gt;Meshlet2</title>
<path fill="none" stroke="black" d="M352.52,-137.57C336.23,-127.11 317.53,-115.1 303.19,-105.89"/>
<polygon fill="black" stroke="black" points="350.2,-140.24 360.5,-142.7 353.98,-134.35 350.2,-140.24"/>
</g>
<!-- Meshlet3 -->
<g id="node6" class="node">
<title>Meshlet3</title>
<ellipse fill="none" stroke="black" cx="389" cy="-90" rx="45.72" ry="18"/>
<text xml:space="preserve" text-anchor="middle" x="389" y="-84.95" font-family="Times New Roman,serif" font-size="14.00">Meshlet3</text>
</g>
<!-- MeshletGroup1&#45;&gt;Meshlet3 -->
<g id="edge4" class="edge">
<title>MeshletGroup1&#45;&gt;Meshlet3</title>
<path fill="none" stroke="black" d="M389,-132.24C389,-124.04 389,-115.37 389,-108.1"/>
<polygon fill="black" stroke="black" points="385.5,-132.18 389,-142.18 392.5,-132.18 385.5,-132.18"/>
</g>
<!-- Meshlet4 -->
<g id="node7" class="node">
<title>Meshlet4</title>
<ellipse fill="none" stroke="black" cx="498" cy="-90" rx="45.72" ry="18"/>
<text xml:space="preserve" text-anchor="middle" x="498" y="-84.95" font-family="Times New Roman,serif" font-size="14.00">Meshlet4</text>
</g>
<!-- MeshletGroup1&#45;&gt;Meshlet4 -->
<g id="edge5" class="edge">
<title>MeshletGroup1&#45;&gt;Meshlet4</title>
<path fill="none" stroke="black" d="M425.48,-137.57C441.77,-127.11 460.47,-115.1 474.81,-105.89"/>
<polygon fill="black" stroke="black" points="424.02,-134.35 417.5,-142.7 427.8,-140.24 424.02,-134.35"/>
</g>
<!-- Meshlet2&#45;&gt;SourceMesh -->
<g id="edge23" class="edge">
<title>Meshlet2&#45;&gt;SourceMesh</title>
<path fill="none" stroke="black" d="M299.68,-63.48C306.61,-54.5 314.24,-44.61 320.54,-36.45"/>
<polygon fill="black" stroke="black" points="297.06,-61.16 293.72,-71.21 302.6,-65.43 297.06,-61.16"/>
</g>
<!-- Meshlet3&#45;&gt;SourceMesh -->
<g id="edge24" class="edge">
<title>Meshlet3&#45;&gt;SourceMesh</title>
<path fill="none" stroke="black" d="M368.95,-63.48C361.89,-54.5 354.12,-44.61 347.71,-36.45"/>
<polygon fill="black" stroke="black" points="366.1,-65.52 375.03,-71.22 371.6,-61.2 366.1,-65.52"/>
</g>
<!-- Meshlet4&#45;&gt;SourceMesh -->
<g id="edge25" class="edge">
<title>Meshlet4&#45;&gt;SourceMesh</title>
<path fill="none" stroke="black" d="M459.23,-70.8C454.13,-68.47 448.95,-66.16 444,-64 421.87,-54.36 396.99,-44.13 376.5,-35.86"/>
<polygon fill="black" stroke="black" points="457.6,-73.9 468.15,-74.89 460.52,-67.54 457.6,-73.9"/>
</g>
<!-- MeshletGroup2 -->
<g id="node8" class="node">
<title>MeshletGroup2</title>
<polygon fill="none" stroke="blue" points="605.75,-180 504.25,-180 504.25,-144 605.75,-144 605.75,-180"/>
<text xml:space="preserve" text-anchor="middle" x="555" y="-156.95" font-family="Times New Roman,serif" font-size="14.00">MeshletGroup2</text>
</g>
<!-- Meshlet5 -->
<g id="node9" class="node">
<title>Meshlet5</title>
<ellipse fill="none" stroke="black" cx="607" cy="-90" rx="45.72" ry="18"/>
<text xml:space="preserve" text-anchor="middle" x="607" y="-84.95" font-family="Times New Roman,serif" font-size="14.00">Meshlet5</text>
</g>
<!-- MeshletGroup2&#45;&gt;Meshlet5 -->
<g id="edge6" class="edge">
<title>MeshletGroup2&#45;&gt;Meshlet5</title>
<path fill="none" stroke="black" d="M574.57,-134.66C581.3,-125.59 588.65,-115.7 594.65,-107.62"/>
<polygon fill="black" stroke="black" points="571.91,-132.37 568.76,-142.48 577.53,-136.54 571.91,-132.37"/>
</g>
<!-- Meshlet5&#45;&gt;SourceMesh -->
<g id="edge26" class="edge">
<title>Meshlet5&#45;&gt;SourceMesh</title>
<path fill="none" stroke="black" d="M569.7,-70.39C564.18,-68.03 558.5,-65.81 553,-64 493.09,-44.27 421,-31.46 376.33,-24.73"/>
<polygon fill="black" stroke="black" points="568.09,-73.5 578.64,-74.41 570.96,-67.11 568.09,-73.5"/>
</g>
<!-- Meshlet6 -->
<g id="node10" class="node">
<title>Meshlet6</title>
<ellipse fill="none" stroke="black" cx="199" cy="-246.5" rx="45.72" ry="18"/>
<text xml:space="preserve" text-anchor="middle" x="199" y="-241.45" font-family="Times New Roman,serif" font-size="14.00">Meshlet6</text>
</g>
<!-- Meshlet6&#45;&gt;MeshletGroup0 -->
<g id="edge7" class="edge">
<title>Meshlet6&#45;&gt;MeshletGroup0</title>
<path fill="none" stroke="black" d="M189.57,-217.71C185.37,-205.35 180.56,-191.18 176.89,-180.36"/>
<polygon fill="black" stroke="black" points="186.18,-218.63 192.71,-226.97 192.81,-216.38 186.18,-218.63"/>
</g>
<!-- Meshlet7 -->
<g id="node11" class="node">
<title>Meshlet7</title>
<ellipse fill="none" stroke="black" cx="308" cy="-246.5" rx="45.72" ry="18"/>
<text xml:space="preserve" text-anchor="middle" x="308" y="-241.45" font-family="Times New Roman,serif" font-size="14.00">Meshlet7</text>
</g>
<!-- Meshlet7&#45;&gt;MeshletGroup1 -->
<g id="edge8" class="edge">
<title>Meshlet7&#45;&gt;MeshletGroup1</title>
<path fill="none" stroke="black" d="M331.98,-221.07C344.81,-208.01 360.31,-192.22 371.91,-180.4"/>
<polygon fill="black" stroke="black" points="329.57,-218.53 325.06,-228.12 334.57,-223.44 329.57,-218.53"/>
</g>
<!-- Meshlet8 -->
<g id="node12" class="node">
<title>Meshlet8</title>
<ellipse fill="none" stroke="black" cx="417" cy="-246.5" rx="45.72" ry="18"/>
<text xml:space="preserve" text-anchor="middle" x="417" y="-241.45" font-family="Times New Roman,serif" font-size="14.00">Meshlet8</text>
</g>
<!-- Meshlet8&#45;&gt;MeshletGroup1 -->
<g id="edge9" class="edge">
<title>Meshlet8&#45;&gt;MeshletGroup1</title>
<path fill="none" stroke="black" d="M407.57,-217.71C403.37,-205.35 398.56,-191.18 394.89,-180.36"/>
<polygon fill="black" stroke="black" points="404.18,-218.63 410.71,-226.97 410.81,-216.38 404.18,-218.63"/>
</g>
<!-- Meshlet9 -->
<g id="node13" class="node">
<title>Meshlet9</title>
<ellipse fill="none" stroke="black" cx="526" cy="-246.5" rx="45.72" ry="18"/>
<text xml:space="preserve" text-anchor="middle" x="526" y="-241.45" font-family="Times New Roman,serif" font-size="14.00">Meshlet9</text>
</g>
<!-- Meshlet9&#45;&gt;MeshletGroup2 -->
<g id="edge10" class="edge">
<title>Meshlet9&#45;&gt;MeshletGroup2</title>
<path fill="none" stroke="black" d="M535.77,-217.71C540.11,-205.35 545.09,-191.18 548.9,-180.36"/>
<polygon fill="black" stroke="black" points="532.53,-216.38 532.51,-226.98 539.13,-218.7 532.53,-216.38"/>
</g>
<!-- MeshletGroup3 -->
<g id="node14" class="node">
<title>MeshletGroup3</title>
<polygon fill="none" stroke="blue" points="352.75,-336.5 251.25,-336.5 251.25,-300.5 352.75,-300.5 352.75,-336.5"/>
<text xml:space="preserve" text-anchor="middle" x="302" y="-313.45" font-family="Times New Roman,serif" font-size="14.00">MeshletGroup3</text>
</g>
<!-- MeshletGroup3&#45;&gt;Meshlet6 -->
<g id="edge11" class="edge">
<title>MeshletGroup3&#45;&gt;Meshlet6</title>
<path fill="none" stroke="black" d="M267.16,-293.82C251.99,-283.51 234.65,-271.73 221.26,-262.63"/>
<polygon fill="black" stroke="black" points="264.78,-296.44 275.02,-299.17 268.72,-290.65 264.78,-296.44"/>
</g>
<!-- MeshletGroup3&#45;&gt;Meshlet7 -->
<g id="edge12" class="edge">
<title>MeshletGroup3&#45;&gt;Meshlet7</title>
<path fill="none" stroke="black" d="M304.47,-288.74C305.17,-280.54 305.91,-271.87 306.53,-264.6"/>
<polygon fill="black" stroke="black" points="300.98,-288.43 303.61,-298.69 307.95,-289.02 300.98,-288.43"/>
</g>
<!-- MeshletGroup4 -->
<g id="node15" class="node">
<title>MeshletGroup4</title>
<polygon fill="none" stroke="blue" points="472.75,-336.5 371.25,-336.5 371.25,-300.5 472.75,-300.5 472.75,-336.5"/>
<text xml:space="preserve" text-anchor="middle" x="422" y="-313.45" font-family="Times New Roman,serif" font-size="14.00">MeshletGroup4</text>
</g>
<!-- MeshletGroup4&#45;&gt;Meshlet8 -->
<g id="edge13" class="edge">
<title>MeshletGroup4&#45;&gt;Meshlet8</title>
<path fill="none" stroke="black" d="M419.95,-288.74C419.36,-280.54 418.74,-271.87 418.22,-264.6"/>
<polygon fill="black" stroke="black" points="416.45,-288.96 420.66,-298.69 423.43,-288.46 416.45,-288.96"/>
</g>
<!-- MeshletGroup4&#45;&gt;Meshlet9 -->
<g id="edge14" class="edge">
<title>MeshletGroup4&#45;&gt;Meshlet9</title>
<path fill="none" stroke="black" d="M457.18,-293.82C472.5,-283.51 490.01,-271.73 503.53,-262.63"/>
<polygon fill="black" stroke="black" points="455.57,-290.68 449.23,-299.17 459.48,-296.49 455.57,-290.68"/>
</g>
<!-- Meshlet10 -->
<g id="node16" class="node">
<title>Meshlet10</title>
<ellipse fill="none" stroke="black" cx="302" cy="-403" rx="50.33" ry="18"/>
<text xml:space="preserve" text-anchor="middle" x="302" y="-397.95" font-family="Times New Roman,serif" font-size="14.00">Meshlet10</text>
</g>
<!-- Meshlet10&#45;&gt;MeshletGroup3 -->
<g id="edge15" class="edge">
<title>Meshlet10&#45;&gt;MeshletGroup3</title>
<path fill="none" stroke="black" d="M302,-373.14C302,-361.08 302,-347.47 302,-336.97"/>
<polygon fill="black" stroke="black" points="298.5,-372.99 302,-382.99 305.5,-372.99 298.5,-372.99"/>
</g>
<!-- Meshlet11 -->
<g id="node17" class="node">
<title>Meshlet11</title>
<ellipse fill="none" stroke="black" cx="421" cy="-403" rx="50.33" ry="18"/>
<text xml:space="preserve" text-anchor="middle" x="421" y="-397.95" font-family="Times New Roman,serif" font-size="14.00">Meshlet11</text>
</g>
<!-- Meshlet11&#45;&gt;MeshletGroup4 -->
<g id="edge16" class="edge">
<title>Meshlet11&#45;&gt;MeshletGroup4</title>
<path fill="none" stroke="black" d="M421.35,-373.14C421.5,-361.08 421.66,-347.47 421.79,-336.97"/>
<polygon fill="black" stroke="black" points="417.85,-372.95 421.23,-382.99 424.85,-373.03 417.85,-372.95"/>
</g>
<!-- MeshletGroup5 -->
<g id="node18" class="node">
<title>MeshletGroup5</title>
<polygon fill="none" stroke="blue" points="411.75,-493 310.25,-493 310.25,-457 411.75,-457 411.75,-493"/>
<text xml:space="preserve" text-anchor="middle" x="361" y="-469.95" font-family="Times New Roman,serif" font-size="14.00">MeshletGroup5</text>
</g>
<!-- MeshletGroup5&#45;&gt;Meshlet10 -->
<g id="edge17" class="edge">
<title>MeshletGroup5&#45;&gt;Meshlet10</title>
<path fill="none" stroke="black" d="M339.04,-447.94C331.33,-438.8 322.89,-428.78 316.01,-420.62"/>
<polygon fill="black" stroke="black" points="336.32,-450.15 345.44,-455.54 341.67,-445.64 336.32,-450.15"/>
</g>
<!-- MeshletGroup5&#45;&gt;Meshlet11 -->
<g id="edge18" class="edge">
<title>MeshletGroup5&#45;&gt;Meshlet11</title>
<path fill="none" stroke="black" d="M383.09,-448.23C390.99,-439.01 399.69,-428.87 406.75,-420.62"/>
<polygon fill="black" stroke="black" points="380.67,-445.68 376.82,-455.55 385.98,-450.23 380.67,-445.68"/>
</g>
<!-- Meshlet12 -->
<g id="node19" class="node">
<title>Meshlet12</title>
<ellipse fill="none" stroke="black" cx="361" cy="-559.5" rx="50.33" ry="18"/>
<text xml:space="preserve" text-anchor="middle" x="361" y="-554.45" font-family="Times New Roman,serif" font-size="14.00">Meshlet12</text>
</g>
<!-- Meshlet12&#45;&gt;MeshletGroup5 -->
<g id="edge19" class="edge">
<title>Meshlet12&#45;&gt;MeshletGroup5</title>
<path fill="none" stroke="black" d="M361,-529.64C361,-517.58 361,-503.97 361,-493.47"/>
<polygon fill="black" stroke="black" points="357.5,-529.49 361,-539.49 364.5,-529.49 357.5,-529.49"/>
</g>
<!-- MeshletGroup6 -->
<g id="node20" class="node">
<title>MeshletGroup6</title>
<polygon fill="none" stroke="blue" points="411.75,-649.5 310.25,-649.5 310.25,-613.5 411.75,-613.5 411.75,-649.5"/>
<text xml:space="preserve" text-anchor="middle" x="361" y="-626.45" font-family="Times New Roman,serif" font-size="14.00">MeshletGroup6</text>
</g>
<!-- MeshletGroup6&#45;&gt;Meshlet12 -->
<g id="edge20" class="edge">
<title>MeshletGroup6&#45;&gt;Meshlet12</title>
<path fill="none" stroke="black" d="M361,-601.74C361,-593.54 361,-584.87 361,-577.6"/>
<polygon fill="black" stroke="black" points="357.5,-601.68 361,-611.68 364.5,-601.68 357.5,-601.68"/>
</g>
</g>
</svg>
